<svg width='24' height='24' viewBox='0 0 24 24' xmlns='http://www.w3.org/2000/svg' xmlns:xlink='http://www.w3.org/1999/xlink'><rect width='24' height='24' stroke='none' fill='#000000' opacity='0'/>


<g transform="matrix(0.91 0 0 0.91 12 12)" >
<path style="stroke: none; stroke-width: 1; stroke-dasharray: none; stroke-linecap: butt; stroke-dashoffset: 0; stroke-linejoin: miter; stroke-miterlimit: 4; fill: rgb(0,0,0); fill-rule: nonzero; opacity: 1;" transform=" translate(-15, -15)" d="M 24 4 L 6 4 C 4.895 4 4 4.895 4 6 L 4 24 C 4 25.105 4.895 26 6 26 L 24 26 C 25.105 26 26 25.105 26 24 L 26 6 C 26 4.895 25.105 4 24 4 z M 10.954 22 L 8.004000000000001 22 L 8.004000000000001 12.508 L 10.954 12.508 L 10.954 22 z M 9.449 11.151 C 8.498 11.151 7.729 10.379999999999999 7.729 9.431 C 7.729 8.482 8.499 7.711999999999999 9.449 7.711999999999999 C 10.397 7.711999999999999 11.168 8.482999999999999 11.168 9.431 C 11.168 10.38 10.397 11.151 9.449 11.151 z M 22.004 22 L 19.056 22 L 19.056 17.384 C 19.056 16.283 19.036 14.867 17.523 14.867 C 15.988 14.867 15.751999999999999 16.066000000000003 15.751999999999999 17.304000000000002 L 15.751999999999999 22 L 12.803999999999998 22 L 12.803999999999998 12.508 L 15.633999999999999 12.508 L 15.633999999999999 13.805 L 15.673999999999998 13.805 C 16.067999999999998 13.059 17.029999999999998 12.272 18.464999999999996 12.272 C 21.451999999999998 12.272 22.003999999999998 14.238 22.003999999999998 16.794 L 22.003999999999998 22 z" stroke-linecap="round" />
</g>
</svg>