<svg width='24' height='24' viewBox='0 0 24 24' xmlns='http://www.w3.org/2000/svg' xmlns:xlink='http://www.w3.org/1999/xlink'><rect width='24' height='24' stroke='none' fill='#000000' opacity='0'/>


<g transform="matrix(0.83 0 0 0.83 12 12)" >
<path style="stroke: none; stroke-width: 1; stroke-dasharray: none; stroke-linecap: butt; stroke-dashoffset: 0; stroke-linejoin: miter; stroke-miterlimit: 4; fill: rgb(0,0,0); fill-rule: nonzero; opacity: 1;" transform=" translate(-15, -15)" d="M 15 27 C 21.627 27 27 21.627 27 15 C 27 8.373000000000001 21.627 3 15 3 C 8.373000000000001 3 3 8.373 3 15 C 3 21.627000000000002 8.373 27 15 27 z M 11.293 11.293 L 14.293 8.293 C 14.488 8.098 14.744 8 15 8 C 15.256 8 15.512 8.098 15.707 8.293 L 18.707 11.293 C 18.993000000000002 11.578999999999999 19.079 12.008999999999999 18.924 12.383 C 18.769 12.757 18.404 13 18 13 L 16 13 L 16 21 C 16 21.553 15.552 22 15 22 C 14.448 22 14 21.553 14 21 L 14 13 L 12 13 C 11.596 13 11.231 12.757 11.076 12.383 C 10.921000000000001 12.008999999999999 11.007 11.579 11.293 11.293 z" stroke-linecap="round" />
</g>
</svg>